<svg xmlns="http://www.w3.org/2000/svg" xmlns:xlink="http://www.w3.org/1999/xlink" width="900" zoomAndPan="magnify" viewBox="0 0 675 675.000002" height="900" preserveAspectRatio="xMidYMid meet" version="1.0"><path fill="#f0c0bf" d="M 229.625 231.03125 C 229.648438 229.679688 229.6875 228.324219 229.742188 226.96875 C 233.441406 134.980469 316.25 68.777344 399.820312 54.023438 C 514.484375 33.785156 666.765625 109.523438 640.097656 244.535156 C 625.8125 316.820312 574.554688 382.34375 501.972656 402.414062 C 481.964844 407.949219 459.351562 411.515625 438.554688 411.515625 C 395.050781 411.515625 360.726562 388.910156 320.71875 417.789062 C 309.015625 426.230469 296.910156 455.878906 278.351562 449.34375 C 264.789062 444.570312 261.945312 417.089844 261.027344 405.632812 C 256.300781 346.816406 228.582031 290.246094 229.625 231.03125 Z M 229.625 231.03125 " fill-opacity="1" fill-rule="nonzero"/><path fill="#ffffff" d="M 561.304688 231.921875 C 561.304688 232.800781 561.261719 233.671875 561.175781 234.546875 C 561.089844 235.417969 560.960938 236.28125 560.789062 237.140625 C 560.617188 238 560.40625 238.851562 560.152344 239.6875 C 559.898438 240.527344 559.601562 241.351562 559.265625 242.160156 C 558.929688 242.96875 558.554688 243.761719 558.144531 244.535156 C 557.730469 245.304688 557.28125 246.054688 556.792969 246.785156 C 556.304688 247.511719 555.785156 248.214844 555.226562 248.894531 C 554.671875 249.570312 554.082031 250.21875 553.464844 250.839844 C 552.84375 251.457031 552.195312 252.046875 551.519531 252.601562 C 550.839844 253.15625 550.136719 253.679688 549.40625 254.164062 C 548.679688 254.652344 547.929688 255.101562 547.15625 255.515625 C 546.382812 255.925781 545.589844 256.300781 544.78125 256.636719 C 543.972656 256.972656 543.144531 257.265625 542.308594 257.519531 C 541.46875 257.777344 540.621094 257.988281 539.757812 258.160156 C 538.898438 258.328125 538.035156 258.457031 537.160156 258.542969 C 536.289062 258.628906 535.414062 258.671875 534.539062 258.671875 C 533.660156 258.671875 532.785156 258.628906 531.914062 258.542969 C 531.042969 258.457031 530.175781 258.328125 529.316406 258.160156 C 528.457031 257.988281 527.605469 257.777344 526.769531 257.519531 C 525.929688 257.265625 525.105469 256.972656 524.296875 256.636719 C 523.484375 256.300781 522.695312 255.925781 521.921875 255.515625 C 521.148438 255.101562 520.398438 254.652344 519.667969 254.164062 C 518.9375 253.679688 518.234375 253.15625 517.558594 252.601562 C 516.878906 252.046875 516.230469 251.457031 515.613281 250.839844 C 514.992188 250.21875 514.402344 249.570312 513.847656 248.894531 C 513.292969 248.214844 512.769531 247.511719 512.285156 246.785156 C 511.796875 246.054688 511.347656 245.304688 510.933594 244.535156 C 510.519531 243.761719 510.144531 242.96875 509.808594 242.160156 C 509.472656 241.351562 509.179688 240.527344 508.925781 239.6875 C 508.671875 238.851562 508.457031 238 508.285156 237.140625 C 508.117188 236.28125 507.988281 235.417969 507.902344 234.546875 C 507.816406 233.671875 507.773438 232.800781 507.773438 231.921875 C 507.773438 231.046875 507.816406 230.171875 507.902344 229.300781 C 507.988281 228.429688 508.117188 227.566406 508.285156 226.707031 C 508.457031 225.847656 508.671875 224.996094 508.925781 224.160156 C 509.179688 223.320312 509.472656 222.496094 509.808594 221.6875 C 510.144531 220.878906 510.519531 220.085938 510.933594 219.3125 C 511.347656 218.542969 511.796875 217.792969 512.285156 217.0625 C 512.769531 216.335938 513.292969 215.632812 513.847656 214.953125 C 514.402344 214.277344 514.992188 213.628906 515.613281 213.007812 C 516.230469 212.390625 516.878906 211.800781 517.558594 211.246094 C 518.234375 210.691406 518.9375 210.167969 519.667969 209.683594 C 520.398438 209.195312 521.148438 208.746094 521.921875 208.332031 C 522.695312 207.921875 523.484375 207.546875 524.296875 207.210938 C 525.105469 206.875 525.929688 206.582031 526.769531 206.328125 C 527.605469 206.070312 528.457031 205.859375 529.316406 205.6875 C 530.175781 205.519531 531.042969 205.390625 531.914062 205.304688 C 532.785156 205.21875 533.660156 205.175781 534.539062 205.175781 C 535.414062 205.175781 536.289062 205.21875 537.160156 205.304688 C 538.035156 205.390625 538.898438 205.519531 539.757812 205.6875 C 540.621094 205.859375 541.46875 206.070312 542.308594 206.328125 C 543.144531 206.582031 543.972656 206.875 544.78125 207.210938 C 545.589844 207.546875 546.382812 207.921875 547.15625 208.332031 C 547.929688 208.746094 548.679688 209.195312 549.40625 209.683594 C 550.136719 210.167969 550.839844 210.691406 551.519531 211.246094 C 552.195312 211.800781 552.84375 212.390625 553.464844 213.007812 C 554.082031 213.628906 554.671875 214.277344 555.226562 214.953125 C 555.785156 215.632812 556.304688 216.335938 556.792969 217.0625 C 557.28125 217.792969 557.730469 218.542969 558.144531 219.3125 C 558.554688 220.085938 558.929688 220.878906 559.265625 221.6875 C 559.601562 222.496094 559.898438 223.320312 560.152344 224.160156 C 560.40625 224.996094 560.617188 225.847656 560.789062 226.707031 C 560.960938 227.566406 561.089844 228.429688 561.175781 229.300781 C 561.261719 230.171875 561.304688 231.046875 561.304688 231.921875 Z M 561.304688 231.921875 " fill-opacity="1" fill-rule="nonzero"/><path fill="#ffffff" d="M 466.761719 231.921875 C 466.761719 232.800781 466.71875 233.675781 466.632812 234.546875 C 466.546875 235.417969 466.417969 236.285156 466.246094 237.144531 C 466.078125 238.003906 465.863281 238.851562 465.609375 239.6875 C 465.355469 240.527344 465.058594 241.351562 464.722656 242.160156 C 464.390625 242.96875 464.015625 243.761719 463.601562 244.535156 C 463.1875 245.308594 462.738281 246.058594 462.25 246.785156 C 461.765625 247.515625 461.242188 248.21875 460.6875 248.894531 C 460.128906 249.570312 459.542969 250.21875 458.921875 250.839844 C 458.300781 251.460938 457.652344 252.046875 456.976562 252.601562 C 456.296875 253.160156 455.59375 253.679688 454.867188 254.167969 C 454.136719 254.652344 453.386719 255.105469 452.613281 255.515625 C 451.839844 255.929688 451.046875 256.304688 450.238281 256.640625 C 449.429688 256.972656 448.601562 257.269531 447.765625 257.523438 C 446.925781 257.777344 446.078125 257.992188 445.214844 258.160156 C 444.355469 258.332031 443.492188 258.460938 442.617188 258.546875 C 441.746094 258.632812 440.871094 258.675781 439.996094 258.675781 C 439.117188 258.675781 438.242188 258.632812 437.371094 258.546875 C 436.5 258.460938 435.632812 258.332031 434.773438 258.160156 C 433.914062 257.992188 433.0625 257.777344 432.222656 257.523438 C 431.386719 257.269531 430.5625 256.972656 429.75 256.640625 C 428.941406 256.304688 428.148438 255.929688 427.375 255.515625 C 426.601562 255.105469 425.851562 254.652344 425.121094 254.167969 C 424.394531 253.679688 423.691406 253.160156 423.011719 252.601562 C 422.335938 252.046875 421.6875 251.460938 421.066406 250.839844 C 420.445312 250.21875 419.859375 249.570312 419.300781 248.894531 C 418.746094 248.21875 418.226562 247.515625 417.738281 246.785156 C 417.25 246.058594 416.800781 245.308594 416.386719 244.535156 C 415.972656 243.761719 415.597656 242.96875 415.265625 242.160156 C 414.929688 241.351562 414.632812 240.527344 414.378906 239.6875 C 414.125 238.851562 413.910156 238.003906 413.742188 237.144531 C 413.570312 236.285156 413.441406 235.417969 413.355469 234.546875 C 413.269531 233.675781 413.226562 232.800781 413.226562 231.921875 C 413.226562 231.046875 413.269531 230.171875 413.355469 229.300781 C 413.441406 228.429688 413.570312 227.5625 413.742188 226.703125 C 413.910156 225.84375 414.125 224.996094 414.378906 224.15625 C 414.632812 223.320312 414.929688 222.496094 415.265625 221.6875 C 415.597656 220.875 415.972656 220.085938 416.386719 219.3125 C 416.800781 218.539062 417.25 217.789062 417.738281 217.0625 C 418.226562 216.332031 418.746094 215.628906 419.300781 214.953125 C 419.859375 214.277344 420.445312 213.628906 421.066406 213.007812 C 421.6875 212.386719 422.335938 211.800781 423.011719 211.246094 C 423.691406 210.6875 424.394531 210.167969 425.121094 209.679688 C 425.851562 209.195312 426.601562 208.742188 427.375 208.332031 C 428.148438 207.917969 428.941406 207.542969 429.75 207.207031 C 430.5625 206.875 431.386719 206.578125 432.222656 206.324219 C 433.0625 206.070312 433.914062 205.855469 434.773438 205.6875 C 435.632812 205.515625 436.5 205.386719 437.371094 205.300781 C 438.242188 205.214844 439.117188 205.171875 439.996094 205.171875 C 440.871094 205.171875 441.746094 205.214844 442.617188 205.300781 C 443.492188 205.386719 444.355469 205.515625 445.214844 205.6875 C 446.078125 205.855469 446.925781 206.070312 447.765625 206.324219 C 448.601562 206.578125 449.429688 206.875 450.238281 207.207031 C 451.046875 207.542969 451.839844 207.917969 452.613281 208.332031 C 453.386719 208.742188 454.136719 209.195312 454.867188 209.679688 C 455.59375 210.167969 456.296875 210.6875 456.976562 211.246094 C 457.652344 211.800781 458.300781 212.386719 458.921875 213.007812 C 459.542969 213.628906 460.128906 214.277344 460.6875 214.953125 C 461.242188 215.628906 461.765625 216.332031 462.25 217.0625 C 462.738281 217.789062 463.1875 218.539062 463.601562 219.3125 C 464.015625 220.085938 464.390625 220.875 464.722656 221.6875 C 465.058594 222.496094 465.355469 223.320312 465.609375 224.15625 C 465.863281 224.996094 466.078125 225.84375 466.246094 226.703125 C 466.417969 227.5625 466.546875 228.429688 466.632812 229.300781 C 466.71875 230.171875 466.761719 231.046875 466.761719 231.921875 Z M 466.761719 231.921875 " fill-opacity="1" fill-rule="nonzero"/><path fill="#ffffff" d="M 377.226562 231.921875 C 377.226562 232.800781 377.183594 233.671875 377.097656 234.546875 C 377.011719 235.417969 376.882812 236.28125 376.710938 237.140625 C 376.539062 238 376.328125 238.851562 376.074219 239.6875 C 375.816406 240.527344 375.523438 241.351562 375.1875 242.160156 C 374.851562 242.96875 374.476562 243.761719 374.066406 244.535156 C 373.652344 245.304688 373.203125 246.054688 372.714844 246.785156 C 372.226562 247.511719 371.707031 248.214844 371.148438 248.894531 C 370.59375 249.570312 370.003906 250.21875 369.386719 250.839844 C 368.765625 251.457031 368.117188 252.046875 367.4375 252.601562 C 366.761719 253.15625 366.058594 253.679688 365.328125 254.164062 C 364.601562 254.652344 363.851562 255.101562 363.078125 255.515625 C 362.304688 255.925781 361.511719 256.300781 360.703125 256.636719 C 359.890625 256.972656 359.066406 257.265625 358.230469 257.519531 C 357.390625 257.777344 356.539062 257.988281 355.679688 258.160156 C 354.820312 258.328125 353.957031 258.457031 353.082031 258.542969 C 352.210938 258.628906 351.335938 258.671875 350.460938 258.671875 C 349.582031 258.671875 348.707031 258.628906 347.835938 258.542969 C 346.964844 258.457031 346.097656 258.328125 345.238281 258.160156 C 344.378906 257.988281 343.527344 257.777344 342.691406 257.519531 C 341.851562 257.265625 341.027344 256.972656 340.21875 256.636719 C 339.40625 256.300781 338.617188 255.925781 337.84375 255.515625 C 337.070312 255.101562 336.316406 254.652344 335.589844 254.164062 C 334.859375 253.679688 334.15625 253.15625 333.480469 252.601562 C 332.800781 252.046875 332.152344 251.457031 331.535156 250.839844 C 330.914062 250.21875 330.324219 249.570312 329.769531 248.894531 C 329.214844 248.214844 328.691406 247.511719 328.203125 246.785156 C 327.71875 246.054688 327.269531 245.304688 326.855469 244.535156 C 326.441406 243.761719 326.066406 242.96875 325.730469 242.160156 C 325.394531 241.351562 325.101562 240.527344 324.847656 239.6875 C 324.59375 238.851562 324.378906 238 324.207031 237.140625 C 324.039062 236.28125 323.910156 235.417969 323.824219 234.546875 C 323.738281 233.671875 323.695312 232.800781 323.695312 231.921875 C 323.695312 231.046875 323.738281 230.171875 323.824219 229.300781 C 323.910156 228.429688 324.039062 227.566406 324.207031 226.707031 C 324.378906 225.847656 324.59375 224.996094 324.847656 224.160156 C 325.101562 223.320312 325.394531 222.496094 325.730469 221.6875 C 326.066406 220.878906 326.441406 220.085938 326.855469 219.3125 C 327.269531 218.542969 327.71875 217.792969 328.203125 217.0625 C 328.691406 216.335938 329.214844 215.632812 329.769531 214.953125 C 330.324219 214.277344 330.914062 213.628906 331.535156 213.007812 C 332.152344 212.390625 332.800781 211.800781 333.480469 211.246094 C 334.15625 210.691406 334.859375 210.167969 335.589844 209.683594 C 336.316406 209.195312 337.070312 208.746094 337.84375 208.332031 C 338.617188 207.921875 339.40625 207.546875 340.21875 207.210938 C 341.027344 206.875 341.851562 206.582031 342.691406 206.328125 C 343.527344 206.070312 344.378906 205.859375 345.238281 205.6875 C 346.097656 205.519531 346.964844 205.390625 347.835938 205.304688 C 348.707031 205.21875 349.582031 205.175781 350.460938 205.175781 C 351.335938 205.175781 352.210938 205.21875 353.082031 205.304688 C 353.957031 205.390625 354.820312 205.519531 355.679688 205.6875 C 356.539062 205.859375 357.390625 206.070312 358.230469 206.328125 C 359.066406 206.582031 359.890625 206.875 360.703125 207.210938 C 361.511719 207.546875 362.304688 207.921875 363.078125 208.332031 C 363.851562 208.746094 364.601562 209.195312 365.328125 209.683594 C 366.058594 210.167969 366.761719 210.691406 367.4375 211.246094 C 368.117188 211.800781 368.765625 212.390625 369.386719 213.007812 C 370.003906 213.628906 370.59375 214.277344 371.148438 214.953125 C 371.707031 215.632812 372.226562 216.335938 372.714844 217.0625 C 373.203125 217.792969 373.652344 218.542969 374.066406 219.3125 C 374.476562 220.085938 374.851562 220.878906 375.1875 221.6875 C 375.523438 222.496094 375.816406 223.320312 376.074219 224.160156 C 376.328125 224.996094 376.539062 225.847656 376.710938 226.707031 C 376.882812 227.566406 377.011719 228.429688 377.097656 229.300781 C 377.183594 230.171875 377.226562 231.046875 377.226562 231.921875 Z M 377.226562 231.921875 " fill-opacity="1" fill-rule="nonzero"/><path fill="#a5d8dc" d="M 453.941406 407.402344 C 453.917969 406.050781 453.878906 404.695312 453.824219 403.339844 C 450.125 311.351562 367.316406 245.148438 283.746094 230.394531 C 169.085938 210.15625 16.800781 285.894531 43.46875 420.90625 C 57.753906 493.191406 109.011719 558.714844 181.59375 578.785156 C 201.601562 584.320312 224.214844 587.886719 245.015625 587.886719 C 288.515625 587.886719 322.839844 565.285156 362.851562 594.160156 C 374.550781 602.601562 386.65625 632.25 405.214844 625.714844 C 418.777344 620.941406 421.621094 593.460938 422.539062 582.003906 C 427.265625 523.191406 454.984375 466.621094 453.941406 407.402344 Z M 453.941406 407.402344 " fill-opacity="1" fill-rule="nonzero"/><path fill="#ffffff" d="M 175.792969 408.292969 C 175.792969 409.171875 175.75 410.042969 175.664062 410.917969 C 175.578125 411.789062 175.449219 412.652344 175.28125 413.511719 C 175.109375 414.371094 174.894531 415.222656 174.640625 416.058594 C 174.386719 416.898438 174.09375 417.722656 173.757812 418.53125 C 173.421875 419.339844 173.046875 420.132812 172.632812 420.902344 C 172.21875 421.675781 171.769531 422.425781 171.285156 423.15625 C 170.796875 423.882812 170.273438 424.585938 169.71875 425.265625 C 169.164062 425.941406 168.574219 426.589844 167.953125 427.210938 C 167.335938 427.828125 166.6875 428.417969 166.007812 428.972656 C 165.332031 429.527344 164.628906 430.050781 163.898438 430.535156 C 163.171875 431.023438 162.417969 431.472656 161.644531 431.886719 C 160.871094 432.296875 160.082031 432.671875 159.273438 433.007812 C 158.460938 433.34375 157.636719 433.636719 156.796875 433.890625 C 155.960938 434.144531 155.109375 434.359375 154.25 434.53125 C 153.390625 434.699219 152.523438 434.828125 151.652344 434.914062 C 150.78125 435 149.90625 435.042969 149.027344 435.042969 C 148.152344 435.042969 147.277344 435 146.40625 434.914062 C 145.53125 434.828125 144.667969 434.699219 143.808594 434.53125 C 142.949219 434.359375 142.097656 434.144531 141.257812 433.890625 C 140.421875 433.636719 139.597656 433.34375 138.785156 433.007812 C 137.976562 432.671875 137.183594 432.296875 136.410156 431.886719 C 135.636719 431.472656 134.886719 431.023438 134.160156 430.535156 C 133.429688 430.050781 132.726562 429.527344 132.050781 428.972656 C 131.371094 428.417969 130.722656 427.828125 130.101562 427.210938 C 129.484375 426.589844 128.894531 425.941406 128.339844 425.265625 C 127.78125 424.585938 127.261719 423.882812 126.773438 423.15625 C 126.289062 422.425781 125.835938 421.675781 125.425781 420.902344 C 125.011719 420.132812 124.636719 419.339844 124.300781 418.53125 C 123.964844 417.722656 123.671875 416.898438 123.414062 416.058594 C 123.160156 415.222656 122.949219 414.371094 122.777344 413.511719 C 122.605469 412.652344 122.476562 411.789062 122.390625 410.917969 C 122.304688 410.042969 122.261719 409.171875 122.261719 408.292969 C 122.261719 407.417969 122.304688 406.542969 122.390625 405.671875 C 122.476562 404.800781 122.605469 403.933594 122.777344 403.074219 C 122.949219 402.21875 123.160156 401.367188 123.414062 400.53125 C 123.671875 399.691406 123.964844 398.867188 124.300781 398.058594 C 124.636719 397.25 125.011719 396.457031 125.425781 395.683594 C 125.835938 394.914062 126.289062 394.160156 126.773438 393.433594 C 127.261719 392.703125 127.78125 392.003906 128.339844 391.324219 C 128.894531 390.648438 129.484375 390 130.101562 389.378906 C 130.722656 388.761719 131.371094 388.171875 132.050781 387.617188 C 132.726562 387.0625 133.429688 386.539062 134.160156 386.054688 C 134.886719 385.566406 135.636719 385.117188 136.410156 384.703125 C 137.183594 384.289062 137.976562 383.917969 138.785156 383.582031 C 139.597656 383.246094 140.421875 382.953125 141.257812 382.695312 C 142.097656 382.441406 142.949219 382.230469 143.808594 382.058594 C 144.667969 381.886719 145.53125 381.761719 146.40625 381.675781 C 147.277344 381.589844 148.152344 381.546875 149.027344 381.546875 C 149.90625 381.546875 150.78125 381.589844 151.652344 381.675781 C 152.523438 381.761719 153.390625 381.886719 154.25 382.058594 C 155.109375 382.230469 155.960938 382.441406 156.796875 382.695312 C 157.636719 382.953125 158.460938 383.246094 159.273438 383.582031 C 160.082031 383.917969 160.871094 384.289062 161.644531 384.703125 C 162.417969 385.117188 163.171875 385.566406 163.898438 386.054688 C 164.628906 386.539062 165.332031 387.0625 166.007812 387.617188 C 166.6875 388.171875 167.335938 388.761719 167.953125 389.378906 C 168.574219 390 169.164062 390.648438 169.71875 391.324219 C 170.273438 392.003906 170.796875 392.707031 171.285156 393.433594 C 171.769531 394.160156 172.21875 394.914062 172.632812 395.683594 C 173.046875 396.457031 173.421875 397.25 173.757812 398.058594 C 174.09375 398.867188 174.386719 399.691406 174.640625 400.53125 C 174.894531 401.367188 175.109375 402.21875 175.28125 403.074219 C 175.449219 403.933594 175.578125 404.800781 175.664062 405.671875 C 175.75 406.542969 175.792969 407.417969 175.792969 408.292969 Z M 175.792969 408.292969 " fill-opacity="1" fill-rule="nonzero"/><path fill="#ffffff" d="M 270.339844 408.292969 C 270.339844 409.171875 270.296875 410.042969 270.210938 410.917969 C 270.125 411.789062 269.996094 412.652344 269.824219 413.511719 C 269.65625 414.371094 269.441406 415.222656 269.1875 416.058594 C 268.933594 416.898438 268.636719 417.722656 268.304688 418.53125 C 267.96875 419.339844 267.59375 420.132812 267.179688 420.90625 C 266.765625 421.679688 266.316406 422.429688 265.828125 423.15625 C 265.34375 423.886719 264.820312 424.589844 264.265625 425.265625 C 263.707031 425.941406 263.121094 426.589844 262.5 427.210938 C 261.878906 427.832031 261.230469 428.417969 260.554688 428.972656 C 259.875 429.53125 259.171875 430.050781 258.445312 430.539062 C 257.714844 431.023438 256.964844 431.472656 256.191406 431.886719 C 255.417969 432.300781 254.625 432.675781 253.816406 433.011719 C 253.007812 433.34375 252.183594 433.640625 251.34375 433.894531 C 250.503906 434.148438 249.65625 434.359375 248.792969 434.53125 C 247.933594 434.703125 247.070312 434.832031 246.195312 434.917969 C 245.324219 435.003906 244.449219 435.046875 243.574219 435.046875 C 242.695312 435.046875 241.820312 435.003906 240.949219 434.917969 C 240.078125 434.832031 239.210938 434.703125 238.351562 434.53125 C 237.492188 434.359375 236.640625 434.148438 235.800781 433.894531 C 234.964844 433.640625 234.140625 433.34375 233.328125 433.011719 C 232.519531 432.675781 231.726562 432.300781 230.953125 431.886719 C 230.179688 431.472656 229.429688 431.023438 228.703125 430.539062 C 227.972656 430.050781 227.269531 429.53125 226.589844 428.972656 C 225.914062 428.417969 225.265625 427.832031 224.644531 427.210938 C 224.023438 426.589844 223.4375 425.941406 222.882812 425.265625 C 222.324219 424.589844 221.804688 423.886719 221.316406 423.15625 C 220.828125 422.429688 220.378906 421.679688 219.964844 420.90625 C 219.550781 420.132812 219.179688 419.339844 218.84375 418.53125 C 218.507812 417.722656 218.210938 416.898438 217.957031 416.058594 C 217.703125 415.222656 217.492188 414.371094 217.320312 413.511719 C 217.148438 412.652344 217.019531 411.789062 216.933594 410.917969 C 216.847656 410.042969 216.804688 409.171875 216.804688 408.292969 C 216.804688 407.417969 216.847656 406.542969 216.933594 405.671875 C 217.019531 404.800781 217.148438 403.933594 217.320312 403.074219 C 217.488281 402.214844 217.703125 401.367188 217.957031 400.527344 C 218.210938 399.691406 218.507812 398.867188 218.84375 398.058594 C 219.179688 397.246094 219.550781 396.457031 219.964844 395.683594 C 220.378906 394.910156 220.828125 394.160156 221.316406 393.433594 C 221.804688 392.703125 222.324219 392 222.878906 391.324219 C 223.4375 390.644531 224.023438 389.996094 224.644531 389.378906 C 225.265625 388.757812 225.914062 388.171875 226.589844 387.617188 C 227.269531 387.058594 227.972656 386.539062 228.703125 386.050781 C 229.429688 385.566406 230.179688 385.113281 230.953125 384.703125 C 231.726562 384.289062 232.519531 383.914062 233.328125 383.578125 C 234.140625 383.242188 234.964844 382.949219 235.800781 382.695312 C 236.640625 382.441406 237.492188 382.226562 238.351562 382.058594 C 239.210938 381.886719 240.078125 381.757812 240.949219 381.671875 C 241.820312 381.585938 242.695312 381.542969 243.574219 381.542969 C 244.449219 381.542969 245.324219 381.585938 246.195312 381.671875 C 247.070312 381.757812 247.933594 381.886719 248.792969 382.058594 C 249.65625 382.226562 250.503906 382.441406 251.34375 382.695312 C 252.183594 382.949219 253.007812 383.242188 253.816406 383.578125 C 254.625 383.914062 255.417969 384.289062 256.191406 384.703125 C 256.964844 385.113281 257.714844 385.566406 258.445312 386.050781 C 259.171875 386.539062 259.875 387.058594 260.554688 387.617188 C 261.230469 388.171875 261.878906 388.757812 262.5 389.378906 C 263.121094 389.996094 263.707031 390.644531 264.265625 391.324219 C 264.820312 392 265.34375 392.703125 265.828125 393.433594 C 266.316406 394.160156 266.765625 394.910156 267.179688 395.683594 C 267.59375 396.457031 267.96875 397.246094 268.304688 398.058594 C 268.636719 398.867188 268.933594 399.691406 269.1875 400.527344 C 269.441406 401.367188 269.65625 402.214844 269.824219 403.074219 C 269.996094 403.933594 270.125 404.800781 270.210938 405.671875 C 270.296875 406.542969 270.339844 407.417969 270.339844 408.292969 Z M 270.339844 408.292969 " fill-opacity="1" fill-rule="nonzero"/><path fill="#ffffff" d="M 359.871094 408.292969 C 359.871094 409.171875 359.828125 410.042969 359.742188 410.917969 C 359.65625 411.789062 359.53125 412.652344 359.359375 413.511719 C 359.1875 414.371094 358.976562 415.222656 358.71875 416.058594 C 358.464844 416.898438 358.171875 417.722656 357.835938 418.53125 C 357.5 419.339844 357.125 420.132812 356.710938 420.902344 C 356.300781 421.675781 355.847656 422.425781 355.363281 423.15625 C 354.875 423.882812 354.351562 424.585938 353.796875 425.265625 C 353.242188 425.941406 352.652344 426.589844 352.035156 427.210938 C 351.414062 427.828125 350.765625 428.417969 350.085938 428.972656 C 349.410156 429.527344 348.707031 430.050781 347.976562 430.535156 C 347.25 431.023438 346.496094 431.472656 345.722656 431.886719 C 344.953125 432.296875 344.160156 432.671875 343.351562 433.007812 C 342.539062 433.34375 341.714844 433.636719 340.875 433.890625 C 340.039062 434.144531 339.1875 434.359375 338.328125 434.53125 C 337.46875 434.699219 336.601562 434.828125 335.730469 434.914062 C 334.859375 435 333.984375 435.042969 333.105469 435.042969 C 332.230469 435.042969 331.355469 435 330.484375 434.914062 C 329.613281 434.828125 328.746094 434.699219 327.886719 434.53125 C 327.027344 434.359375 326.175781 434.144531 325.335938 433.890625 C 324.5 433.636719 323.675781 433.34375 322.863281 433.007812 C 322.054688 432.671875 321.261719 432.296875 320.488281 431.886719 C 319.71875 431.472656 318.964844 431.023438 318.238281 430.535156 C 317.507812 430.050781 316.804688 429.527344 316.128906 428.972656 C 315.449219 428.417969 314.800781 427.828125 314.179688 427.210938 C 313.5625 426.589844 312.972656 425.941406 312.417969 425.265625 C 311.859375 424.585938 311.339844 423.882812 310.851562 423.15625 C 310.367188 422.425781 309.914062 421.675781 309.503906 420.902344 C 309.089844 420.132812 308.714844 419.339844 308.378906 418.53125 C 308.042969 417.722656 307.75 416.898438 307.496094 416.058594 C 307.238281 415.222656 307.027344 414.371094 306.855469 413.511719 C 306.683594 412.652344 306.558594 411.789062 306.472656 410.917969 C 306.386719 410.042969 306.34375 409.171875 306.34375 408.292969 C 306.34375 407.417969 306.386719 406.542969 306.472656 405.671875 C 306.558594 404.800781 306.683594 403.933594 306.855469 403.074219 C 307.027344 402.21875 307.238281 401.367188 307.496094 400.53125 C 307.75 399.691406 308.042969 398.867188 308.378906 398.058594 C 308.714844 397.25 309.089844 396.457031 309.503906 395.683594 C 309.914062 394.914062 310.367188 394.160156 310.851562 393.433594 C 311.339844 392.703125 311.859375 392.003906 312.417969 391.324219 C 312.972656 390.648438 313.5625 390 314.179688 389.378906 C 314.800781 388.761719 315.449219 388.171875 316.128906 387.617188 C 316.804688 387.0625 317.507812 386.539062 318.238281 386.054688 C 318.964844 385.566406 319.71875 385.117188 320.488281 384.703125 C 321.261719 384.289062 322.054688 383.917969 322.863281 383.582031 C 323.675781 383.246094 324.5 382.953125 325.335938 382.695312 C 326.175781 382.441406 327.027344 382.230469 327.886719 382.058594 C 328.746094 381.886719 329.613281 381.761719 330.484375 381.675781 C 331.355469 381.589844 332.230469 381.546875 333.105469 381.546875 C 333.984375 381.546875 334.859375 381.589844 335.730469 381.675781 C 336.601562 381.761719 337.46875 381.886719 338.328125 382.058594 C 339.1875 382.230469 340.039062 382.441406 340.875 382.695312 C 341.714844 382.953125 342.539062 383.246094 343.351562 383.582031 C 344.160156 383.917969 344.953125 384.289062 345.722656 384.703125 C 346.496094 385.117188 347.25 385.566406 347.976562 386.054688 C 348.707031 386.539062 349.410156 387.0625 350.085938 387.617188 C 350.765625 388.171875 351.414062 388.761719 352.035156 389.378906 C 352.652344 390 353.242188 390.648438 353.796875 391.324219 C 354.351562 392.003906 354.875 392.707031 355.363281 393.433594 C 355.847656 394.160156 356.300781 394.914062 356.710938 395.683594 C 357.125 396.457031 357.5 397.25 357.835938 398.058594 C 358.171875 398.867188 358.464844 399.691406 358.71875 400.53125 C 358.976562 401.367188 359.1875 402.21875 359.359375 403.074219 C 359.53125 403.933594 359.65625 404.800781 359.742188 405.671875 C 359.828125 406.542969 359.871094 407.417969 359.871094 408.292969 Z M 359.871094 408.292969 " fill-opacity="1" fill-rule="nonzero"/></svg>